<?xml version="1.0" standalone="no"?>
<!DOCTYPE svg PUBLIC "-//W3C//DTD SVG 20010904//EN"
 "http://www.w3.org/TR/2001/REC-SVG-20010904/DTD/svg10.dtd">
<svg version="1.0" xmlns="http://www.w3.org/2000/svg"
 width="512.000000pt" height="512.000000pt" viewBox="0 0 512.000000 512.000000"
 preserveAspectRatio="xMidYMid meet">
<metadata>
Created by potrace 1.14, written by Peter Selinger 2001-2017
</metadata>
<g transform="translate(0.000000,512.000000) scale(0.100000,-0.100000)"
fill="#000000" stroke="none">
<path d="M1155 5113 c-210 -29 -389 -117 -543 -267 -134 -130 -220 -277 -265
-453 l-22 -88 0 -1745 0 -1745 22 -88 c45 -176 131 -323 265 -453 129 -126
265 -203 435 -247 l88 -22 1715 0 1715 0 57 28 c65 32 121 90 152 156 30 65
30 197 0 262 -46 98 -143 172 -246 185 l-48 7 0 317 0 317 48 7 c103 13 200
87 246 185 l21 46 0 1685 0 1685 -21 46 c-31 67 -87 124 -152 156 l-57 28
-1690 1 c-929 1 -1703 -1 -1720 -3z m1795 -655 c33 -17 51 -35 68 -68 21 -42
22 -55 22 -297 l0 -253 253 0 c242 0 255 -1 297 -22 33 -17 51 -35 68 -68 20
-41 22 -57 22 -230 0 -173 -2 -189 -22 -230 -17 -33 -35 -51 -68 -67 -42 -22
-55 -23 -297 -23 l-253 0 0 -573 0 -573 -22 -44 c-17 -33 -35 -51 -68 -68 -41
-20 -57 -22 -230 -22 -173 0 -189 2 -230 22 -33 17 -51 35 -67 68 l-23 44 0
573 0 573 -253 0 c-242 0 -255 1 -297 23 -33 16 -51 34 -67 67 -21 41 -23 57
-23 230 0 173 2 189 23 230 16 33 34 51 67 68 42 21 55 22 297 22 l253 0 0
253 c0 242 1 255 23 297 16 33 34 51 67 68 41 20 57 22 230 22 173 0 189 -2
230 -22z m890 -3498 l0 -320 -1317 2 -1318 3 -55 26 c-202 96 -250 358 -94
512 44 44 95 73 151 86 21 5 620 9 1336 10 l1297 1 0 -320z"/>
</g>
</svg>
